#!OML:ASF Y:\EmotionMaleHayes\Project 1\Capture day 1\Session 1\Male1.ASF
:FULLY-SPECIFIED
:DEGREES
2610
root -30.299 16.6207 3.76158 1245.73 58.5249 525.039
lowerback 4.78479 1.08849 -11.7023
upperback 8.17591 2.17 -3.63934
thorax 5.78203 0.803649 2.70995
lowerneck -15.7594 -6.50711 -3.58589
upperneck 22.5707 -10.9756 13.3398
head 10.9054 -3.5487 3.86441
rclavicle 4.37326e-014 -3.4191e-014
rhumerus -31.9476 0.924218 -85.9788
rradius 32.42
rwrist -1.28451
rhand -8.95208 -31.4832
rfingers 7.12502
rthumb 16.9926 -60.7599
lclavicle 4.37326e-014 -3.4191e-014
lhumerus -10.5432 -1.51044 77.1867
lradius 22.6099
lwrist -8.94163
lhand -19.6065 -23.4397
lfingers 7.12502
lthumb 6.71972 6.43369
rfemur -12.3483 -14.9654 16.9043
rtibia 25.5216
rfoot -23.6337 -20.5583
rtoes 32.8353
lfemur 8.37984 12.5999 -26.7377
ltibia 10.212
lfoot -17.9882 16.2336
ltoes -20.7614
2611
root -30.2835 16.6094 3.7048 1246.18 58.8716 525.738
lowerback 4.75535 0.989235 -11.0082
upperback 8.30843 2.02377 -3.30009
thorax 5.94609 0.737894 2.69033
lowerneck -15.8522 -6.45249 -3.4742
upperneck 22.3335 -10.9011 13.3014
head 10.8193 -3.52324 3.8335
rclavicle 7.15625e-015 -6.44062e-014
rhumerus -31.6631 0.902746 -85.9167
rradius 32.2862
rwrist -1.2099
rhand -8.92526 -31.3221
rfingers 7.12502
rthumb 17.0184 -60.5966
lclavicle 7.15625e-015 -6.44062e-014
lhumerus -10.8515 -1.89435 77.699
lradius 22.7721
lwrist -8.05806
lhand -20.2428 -23.5471
lfingers 7.12502
lthumb 6.10539 6.34488
rfemur -12.4028 -14.5356 17.2682
rtibia 26.1221
rfoot -23.666 -20.4228
rtoes 32.0689
lfemur 8.37984 12.5999 -26.7377
ltibia 10.212
lfoot -17.9882 16.2336
ltoes -20.7614
2612
root -30.2684 16.6032 3.649 1246.67 59.2468 526.52
lowerback 4.76504 0.896342 -10.2994
upperback 8.44274 1.88012 -2.94334
thorax 6.08862 0.676994 2.67816
lowerneck -15.8541 -6.42488 -3.46866
upperneck 22.107 -10.8636 13.3872
head 10.7386 -3.51055 3.86304
rclavicle -1.19271e-015 2.06736e-014
rhumerus -31.4606 1.02584 -85.8962
rradius 32.3307
rwrist -1.36655
rhand -8.38581 -31.2776
rfingers 7.12502
rthumb 17.5376 -60.5065
lclavicle -1.19271e-015 2.06736e-014
lhumerus -10.8703 -1.29396 78.2193
lradius 22.3048
lwrist -8.44028
lhand -20.8802 -23.8931
lfingers 7.12502
lthumb 5.49003 6.01578
rfemur -12.268 -14.4892 17.6146
rtibia 26.4619
rfoot -23.8719 -19.8599
rtoes 33.4938
lfemur 8.37984 12.5999 -26.7377
ltibia 10.212
lfoot -17.9882 16.2336
ltoes -20.7614
2613
root -30.2539 16.6034 3.59424 1247.26 59.5506 527.515
lowerback 4.92989 0.766458 -9.56481
upperback 8.58619 1.66915 -2.54299
thorax 6.15914 0.588717 2.69278
lowerneck -15.7876 -6.3991 -3.4528
upperneck 21.8301 -10.8173 13.4403
head 10.6224 -3.50319 3.87995
rclavicle 9.24349e-014 0
rhumerus -31.1326 1.29223 -85.8929
rradius 32.1599
rwrist -1.6902
rhand -7.7657 -31.2186
rfingers 7.12502
rthumb 18.1343 -60.3932
lclavicle 9.24349e-014 0
lhumerus -11.071 -0.58584 78.7239
lradius 22.2121
lwrist -9.03112
lhand -21.1484 -23.821
lfingers 7.12502
lthumb 5.23105 6.09448
rfemur -11.9016 -14.8165 17.9545
rtibia 26.5814
rfoot -24.101 -19.1635
rtoes 35.8387
lfemur 8.37984 12.5999 -26.7377
ltibia 10.212
lfoot -17.9882 16.2336
ltoes -20.7614
2614
root -30.2339 16.6065 3.5443 1247.56 59.8117 528.161
lowerback 5.09783 0.64213 -9.20908
upperback 8.7205 1.46618 -2.11237
thorax 6.2194 0.483316 2.94715
lowerneck -15.8421 -6.30575 -3.35384
upperneck 21.5221 -10.6687 13.3628
head 10.4944 -3.45665 3.84728
rclavicle 3.00165e-014 -1.98785e-015
rhumerus -30.769 1.57674 -85.7655
rradius 31.913
rwrist -1.76004
rhand -7.57397 -31.1361
rfingers 7.12502
rthumb 18.3187 -60.2936
lclavicle 3.00165e-014 -1.98785e-015
lhumerus -11.4055 -0.0858449 79.2611
lradius 22.2841
lwrist -9.27893
lhand -20.9088 -24.0455
lfingers 7.12502
lthumb 5.46236 5.86405
rfemur -11.4446 -14.971 18.1228
rtibia 26.5296
rfoot -24.1918 -18.8357
rtoes 37.4169
lfemur 8.37984 12.5999 -26.7377
ltibia 10.212
lfoot -17.9882 16.2336
ltoes -20.7614
2615
root -30.2198 16.6096 3.48936 1247.66 60.1469 528.439
lowerback 5.13356 0.581069 -8.89962
upperback 8.83657 1.36741 -1.75917
thorax 6.32628 0.429315 3.14781
lowerneck -15.9762 -6.22628 -3.28881
upperneck 21.2937 -10.5629 13.3927
head 10.426 -3.40981 3.85417
rclavicle -5.6753e-014 9.54166e-015
rhumerus -30.5182 1.64023 -85.5747
rradius 31.8513
rwrist -1.56371
rhand -7.44888 -31.1953
rfingers 7.12502
rthumb 18.4391 -60.3414
lclavicle -5.6753e-014 9.54166e-015
lhumerus -11.6357 0.227653 79.8934
lradius 22.202
lwrist -9.39912
lhand -20.3543 -24.6391
lfingers 7.12502
lthumb 5.99776 5.25602
rfemur -11.0119 -14.9651 18.109
rtibia 26.2865
rfoot -24.3897 -18.3996
rtoes 38.7844
lfemur 8.37984 12.5999 -26.7377
ltibia 10.212
lfoot -17.9882 16.2336
ltoes -20.7614
2616
root -30.206 16.6231 3.43313 1247.54 60.3254 528.677
lowerback 5.29318 0.468946 -8.53821
upperback 9.03692 1.21476 -1.51006
thorax 6.46495 0.360163 3.2089
lowerneck -16.0289 -6.20522 -3.1637
upperneck 21.0457 -10.5756 13.5526
head 10.3534 -3.39824 3.88172
rclavicle -6.85807e-015 -3.18055e-015
rhumerus -30.1512 1.51988 -85.4841
rradius 31.7246
rwrist -1.17539
rhand -7.3097 -31.1941
rfingers 7.12502
rthumb 18.5729 -60.3275
lclavicle -6.85807e-015 -3.18055e-015
lhumerus -11.7287 0.31693 80.4669
lradius 22.0249
lwrist -9.39684
lhand -20.2819 -24.9179
lfingers 7.12502
lthumb 6.06769 4.97519
rfemur -10.1531 -14.9745 17.9353
rtibia 25.748
rfoot -24.2267 -18.1771
rtoes 38.3573
lfemur 8.37984 12.5999 -26.7377
ltibia 10.212
lfoot -17.9882 16.2336
ltoes -20.7614
2617
root -30.1875 16.6239 3.38379 1247.94 60.9033 528.971
lowerback 4.91509 0.422732 -8.15881
upperback 9.09412 1.16944 -1.25378
thorax 6.7385 0.332521 3.27397
lowerneck -16.0469 -6.14215 -2.92657
upperneck 20.7789 -10.509 13.5017
head 10.2385 -3.37082 3.82577
rclavicle 1.93318e-014 -3.46879e-014
rhumerus -29.6026 1.5188 -85.4628
rradius 31.3462
rwrist -0.890767
rhand -7.22433 -31.0867
rfingers 7.12502
rthumb 18.6551 -60.2122
lclavicle 1.93318e-014 -3.46879e-014
lhumerus -11.9987 -0.0832004 80.9786
lradius 22.0739
lwrist -8.75745
lhand -20.5647 -24.8524
lfingers 7.12502
lthumb 5.79459 5.04835
rfemur -9.9549 -14.731 18.1654
rtibia 25.2655
rfoot -22.9416 -18.5682
rtoes 33.5005
lfemur 8.37984 12.5999 -26.7377
ltibia 10.212
lfoot -17.9882 16.2336
ltoes -20.7614
2618
root -30.1623 16.6402 3.33423 1248.35 61.1764 529.747
lowerback 5.0567 0.305455 -7.67084
upperback 9.20759 0.987183 -0.881914
thorax 6.79109 0.253744 3.39254
lowerneck -16.0956 -6.08875 -2.77516
upperneck 20.6574 -10.4542 13.4729
head 10.1893 -3.34271 3.79403
rclavicle -7.03698e-014 4.57205e-014
rhumerus -29.2156 1.73718 -85.4307
rradius 31.0875
rwrist -1.10816
rhand -7.55529 -31.0735
rfingers 7.12502
rthumb 18.3367 -60.2292
lclavicle -7.03698e-014 4.57205e-014
lhumerus -11.7746 0.769728 81.5435
lradius 20.8874
lwrist -9.36406
lhand -20.9283 -25.3605
lfingers 7.12502
lthumb 5.44355 4.54958
rfemur -8.85961 -14.8076 18.3792
rtibia 24.1873
rfoot -22.421 -18.4693
rtoes 32.4623
lfemur 3.8064 16.5371 -23.5414
ltibia 29.6811
lfoot -20.3057 13.8695
ltoes -24.3477
2619
root -30.1384 16.6481 3.28476 1248.53 61.5342 530.108
lowerback 5.06372 0.283471 -7.35654
upperback 9.23045 0.936539 -0.592148
thorax 6.80924 0.232819 3.52273
lowerneck -16.1103 -6.07852 -2.64145
upperneck 20.5894 -10.4762 13.5316
head 10.1678 -3.3367 3.78782
rclavicle -1.09207e-014 -2.55438e-014
rhumerus -29.1454 1.72298 -85.359
rradius 31.0548
rwrist -1.254
rhand -8.02319 -30.8214
rfingers 7.12502
rthumb 17.8865 -60.0189
lclavicle -1.09207e-014 -2.55438e-014
lhumerus -11.694 1.84731 82.0825
lradius 20.0177
lwrist -10.6203
lhand -20.8908 -25.7277
lfingers 7.12502
lthumb 5.4798 4.18141
rfemur -8.06129 -14.6838 18.4476
rtibia 23.2752
rfoot -22.1954 -18.3444
rtoes 30.8307
lfemur 3.49969 17.0191 -23.0631
ltibia 30.9882
lfoot -19.9338 13.5115
ltoes -24.7614
